<?xml version="1.0" encoding="UTF-8" standalone="no"?>
<!DOCTYPE svg PUBLIC "-//W3C//DTD SVG 1.1//EN" "http://www.w3.org/Graphics/SVG/1.1/DTD/svg11.dtd">
<svg xmlns="http://www.w3.org/2000/svg" xmlns:xlink="http://www.w3.org/1999/xlink" version="1.1" width="34pt" height="34pt" viewBox="0 0 99.3335 88.3335">
<g enable-background="new">
<g id="Layer-1" data-name="Layer 1">
<clipPath id="cp0">
<path transform="matrix(1,0,0,-1,0,88.3335)" d="M 0 88.333 L 99.333 88.333 L 99.333 0 L 0 0 Z "/>
</clipPath>
<g clip-path="url(#cp0)">
<path transform="matrix(1,0,0,-1,42.0205,46.188005)" d="M 0 0 C 0 1.312 1.656 2.753 3.164 2.753 C 4.924 2.753 7.265 2.557 7.265 .867 C 7.265 -.055 6.176 -.779 4.529 -1.875 C 4.15 -2.128 3.754 -2.391 3.362 -2.666 L 3.187 -2.789 L 2.984 -2.739 C .518 -2.14 0 -.918 0 0 M 34.556 -19.53 C 31.655 -19.53 28.126 -16.846 24.714 -14.25 C 21.84 -12.064 19.125 -9.999 17.35 -9.999 C 14.792 -9.999 12.204 -13.052 10.125 -15.294 C 8.592 -16.946 7.484 -18.479 6.512 -18.479 L 6.51 -18.479 C 5.78 -18.479 4.966 -17.455 4.024 -16.573 L 3.536 -15.986 C 2.031 -14.572 .158 -12.746 -2.571 -12.019 L -3.673 -11.691 L 3.977 -6.064 L 4.162 -6.082 C 4.708 -6.157 5.351 -6.152 5.973 -6.152 C 18.465 -6.152 22.898 -.292 22.898 4.725 C 22.898 10.478 18.293 14.655 11.949 14.655 C 9.9 14.655 7.439 14.293 5.681 13.732 L 2.457 12.705 L 18.804 24.405 C 19.19 24.647 19.442 25.288 19.442 25.85 C 19.442 26.706 18.748 27.521 17.925 27.521 L -4.685 27.521 C -5.494 27.521 -6.128 26.946 -6.128 26.061 C -6.128 25.161 -5.467 24.521 -4.685 24.521 L 12.888 24.521 L -7.953 9.199 C -8.183 9.019 -8.593 8.482 -8.593 7.737 C -8.593 6.7 -7.866 6.105 -7.149 6.105 C -6.938 6.105 -6.729 6.138 -6.508 6.258 C 1.902 10.661 5.313 11.352 11.949 11.352 C 16.62 11.352 20.01 8.564 20.01 4.733 C 20.01 1.896 17.33 -1.768 9.775 -2.746 L 8.545 -2.906 L 9.33 -1.858 C 9.924 -1.064 10.225 -.147 10.225 .867 C 10.225 3.838 7.321 5.913 3.164 5.913 C .073 5.913 -2.96 2.984 -2.96 0 C -2.96 -1.948 -2.187 -3.447 -.595 -4.583 L .034 -5.031 L -19.524 -19.594 C -19.935 -19.874 -20.17 -20.377 -20.17 -20.952 C -20.17 -21.898 -19.549 -22.611 -18.726 -22.611 C -18.47 -22.611 -18.128 -22.49 -17.832 -22.295 L -9.085 -15.837 C -9.037 -15.813 -8.979 -15.787 -8.911 -15.771 C -7.576 -15.24 -6.3 -14.97 -5.117 -14.97 C -1.999 -14.97 0 -16.837 1.764 -18.484 C 3.32 -19.938 4.665 -21.193 6.548 -21.193 C 8.708 -21.193 10.944 -18.756 12.918 -16.605 C 14.576 -14.799 16.008 -13.239 17.322 -13.16 L 17.385 -13.155 L 17.448 -13.169 C 18.228 -13.34 19.959 -14.743 21.973 -16.421 C 27.211 -20.631 31.447 -22.769 34.556 -22.769 C 35.338 -22.769 36 -22.009 36 -21.11 C 36 -20.224 35.366 -19.53 34.556 -19.53 "/>
<path transform="matrix(1,0,0,-1,12.415,68.498508)" d="M 0 0 C -.375 0 -.75 .14 -1.042 .42 C -1.637 .995 -1.655 1.944 -1.081 2.54 C -.897 2.733 11.385 15.978 15.135 48.484 C 15.23 49.307 15.977 49.899 16.797 49.802 C 17.62 49.707 18.21 48.963 18.115 48.14 C 14.227 14.43 1.615 1.013 1.08 .458 C .785 .153 .393 0 0 0 "/>
<path transform="matrix(1,0,0,-1,87.04,68.498508)" d="M 0 0 C -.383 0 -.767 .146 -1.06 .438 C -1.558 .936 -13.338 13.018 -20.098 48.028 C -20.255 48.841 -19.723 49.628 -18.909 49.785 C -18.099 49.944 -17.309 49.41 -17.152 48.596 C -10.566 14.482 .944 2.677 1.06 2.562 C 1.646 1.977 1.647 1.027 1.062 .44 C .769 .147 .384 0 0 0 "/>
</g>
</g>
</g>
</svg>
