<?xml version="1.0" standalone="no"?>
<!DOCTYPE svg PUBLIC "-//W3C//DTD SVG 20010904//EN"
 "http://www.w3.org/TR/2001/REC-SVG-20010904/DTD/svg10.dtd">
<svg version="1.0" xmlns="http://www.w3.org/2000/svg"
 width="586.000000pt" height="586.000000pt" viewBox="0 0 586.000000 586.000000"
 preserveAspectRatio="xMidYMid meet">
<metadata>
Created by potrace 1.11, written by Peter Selinger 2001-2013
</metadata>
<g transform="translate(0.000000,586.000000) scale(0.100000,-0.100000)"
fill="#000000" stroke="none">
<path d="M1321 4787 c-50 -25 -61 -55 -82 -218 -122 -955 -375 -1842 -722
-2536 -135 -269 -296 -528 -426 -687 -31 -37 -64 -80 -73 -95 -58 -87 38 -198
136 -157 56 23 208 215 346 437 463 744 788 1741 952 2921 36 260 35 288 -21
325 -38 26 -74 29 -110 10z"/>
<path d="M1938 4784 c-36 -19 -48 -43 -48 -99 0 -38 5 -52 29 -76 l29 -29 682
0 c419 0 679 -4 675 -9 -3 -5 -357 -265 -786 -577 -502 -364 -788 -578 -800
-598 -43 -70 -12 -165 60 -187 40 -12 43 -11 238 84 480 232 678 285 1098 294
271 6 333 -3 465 -69 152 -74 246 -196 273 -353 22 -132 -22 -247 -142 -365
-108 -107 -260 -182 -466 -229 -62 -14 -239 -40 -243 -36 -2 2 17 31 42 65 57
77 80 151 74 235 -16 198 -198 331 -478 351 -149 11 -265 -33 -376 -141 -196
-191 -183 -471 28 -630 l57 -43 -732 -537 c-403 -296 -744 -550 -759 -566 -24
-25 -28 -38 -28 -83 0 -44 5 -60 26 -85 32 -38 80 -49 123 -27 17 9 179 124
359 255 254 186 340 244 387 259 151 51 308 54 429 8 92 -35 178 -94 321 -221
187 -167 254 -205 360 -205 119 0 221 65 417 267 251 260 299 300 378 323 52
15 113 -23 375 -234 150 -121 368 -268 505 -340 136 -71 296 -125 397 -133 75
-5 80 -4 110 21 34 29 58 90 47 122 -22 71 -48 88 -141 98 -168 18 -317 102
-733 409 -342 253 -438 304 -555 294 -132 -10 -253 -100 -520 -387 -102 -109
-201 -208 -221 -220 -63 -40 -89 -26 -238 122 -207 205 -332 290 -499 339 -42
12 -77 25 -76 28 0 3 125 96 277 206 l277 200 220 7 c330 10 539 51 744 149
198 94 327 212 407 373 61 124 81 233 65 365 -20 167 -74 287 -184 407 -160
175 -404 263 -697 251 -204 -9 -285 -25 -600 -123 -24 -8 -40 -10 -35 -5 6 5
282 201 615 436 333 234 611 434 618 443 44 58 31 150 -27 189 l-34 23 -881 0
c-758 -1 -885 -3 -908 -16z m826 -1849 c107 -28 153 -86 123 -157 -19 -43 -49
-70 -186 -162 l-115 -77 -53 17 c-116 37 -183 106 -183 190 0 69 67 152 152
189 44 19 189 19 262 0z"/>
<path d="M4280 4778 c-64 -44 -64 -59 6 -388 248 -1164 640 -2205 1091 -2894
147 -224 273 -379 330 -402 101 -43 195 75 131 164 -13 16 -54 68 -91 114
-250 304 -542 853 -768 1444 -185 485 -362 1103 -491 1714 -49 232 -61 257
-133 266 -31 5 -48 1 -75 -18z"/>
</g>
</svg>
